<?xml version="1.0" encoding="utf-8"?>
<!-- Generator: Adobe Illustrator 16.0.0, SVG Export Plug-In . SVG Version: 6.00 Build 0)  -->
<!DOCTYPE svg PUBLIC "-//W3C//DTD SVG 1.1//EN" "http://www.w3.org/Graphics/SVG/1.1/DTD/svg11.dtd">
<svg version="1.1" id="Layer_1" xmlns="http://www.w3.org/2000/svg" xmlns:xlink="http://www.w3.org/1999/xlink" x="0px" y="0px"
	 width="402px" height="315px" viewBox="120.14 267.445 402 315" enable-background="new 120.14 267.445 402 315"
	 xml:space="preserve">
<path fill="#FFFFFF" d="M499.332,276.994l-71.434,13.823c-5.595,1.083-9.644,5.977-9.644,11.679v48.063H144.427
	c-4.417,0-8.477,2.453-10.536,6.358c-2.061,3.905-1.774,8.643,0.726,12.274l65.814,95.9c2.227,3.238,5.894,5.18,9.811,5.18h193.87
	l0.071,26.418H239.684c-0.19,0-0.346,0.096-0.536,0.107c-0.357-0.012-0.679-0.107-1.035-0.107c-20.895,0-37.896,17.43-37.896,38.859
	s17.002,38.871,37.896,38.871c20.882,0,37.883-17.441,37.883-38.871c0-5.334-1.06-10.418-2.964-15.049h97.875
	c-1.904,4.631-2.964,9.715-2.964,15.049c0,21.43,17.001,38.871,37.884,38.871c20.882,0,37.883-17.441,37.883-38.871
	c0-12.895-6.227-24.264-15.68-31.336l-0.083-33.93h2.238c6.584,0,11.905-5.322,11.905-11.906v-95.9c0-0.333-0.166-0.607-0.19-0.94
	c0.024-0.321,0.19-0.607,0.19-0.94v-48.277l61.791-11.965c6.452-1.238,10.667-7.489,9.417-13.953
	C512.048,279.959,505.833,275.685,499.332,276.994z M238.113,550.609c-7.763,0-14.085-6.75-14.085-15.061
	s6.311-15.049,14.085-15.049c7.75,0,14.072,6.738,14.072,15.049S245.863,550.609,238.113,550.609z M405.826,550.609
	c-7.751,0-14.072-6.75-14.072-15.061s6.31-15.049,14.072-15.049c7.762,0,14.072,6.738,14.072,15.049
	S413.576,550.609,405.826,550.609z M167.047,374.382h251.221v72.088h-201.74L167.047,374.382z"/>
</svg>
