<?xml version="1.0" encoding="utf-8"?>
<!-- Generator: Adobe Illustrator 16.0.0, SVG Export Plug-In . SVG Version: 6.00 Build 0)  -->
<!DOCTYPE svg PUBLIC "-//W3C//DTD SVG 1.1//EN" "http://www.w3.org/Graphics/SVG/1.1/DTD/svg11.dtd">
<svg version="1.1" id="Layer_1" xmlns="http://www.w3.org/2000/svg" xmlns:xlink="http://www.w3.org/1999/xlink" x="0px" y="0px"
	 width="365px" height="406px" viewBox="154.14 218.445 365 406" enable-background="new 154.14 218.445 365 406"
	 xml:space="preserve">
<path fill="#FFFFFF" d="M434.281,229.717c-35.515,0-64.934,26.621-70.088,61.207H183.799c-4.798,0-9.132,2.881-10.978,7.298
	c-1.857,4.429-0.869,9.536,2.488,12.953L303.153,441.22v145.666h-29.657c-6.571,0-11.905,5.32-11.905,11.904
	s5.334,11.906,11.905,11.906h83.125c6.572,0,11.905-5.322,11.905-11.906s-5.333-11.904-11.905-11.904h-29.657V441.22l74.458-75.743
	c10.096,5.369,21.264,8.227,32.859,8.227c39.134,0,70.97-32.3,70.97-71.993S473.414,229.717,434.281,229.717z M417.91,314.723
	L315.058,419.35L212.194,314.723H417.91z M434.281,349.88c-5.19,0-10.239-0.893-15.037-2.536l35.563-36.181
	c3.357-3.417,4.346-8.524,2.488-12.954c-1.857-4.417-6.191-7.298-10.978-7.298H388.42c4.821-21.371,23.502-37.396,45.872-37.396
	c26.002,0,47.158,21.608,47.158,48.182C481.45,328.272,460.282,349.88,434.281,349.88z"/>
</svg>
