<?xml version="1.0" encoding="utf-8"?>
<!-- Generator: Adobe Illustrator 16.0.0, SVG Export Plug-In . SVG Version: 6.00 Build 0)  -->
<!DOCTYPE svg PUBLIC "-//W3C//DTD SVG 1.1//EN" "http://www.w3.org/Graphics/SVG/1.1/DTD/svg11.dtd">
<svg version="1.1" id="Layer_1" xmlns="http://www.w3.org/2000/svg" xmlns:xlink="http://www.w3.org/1999/xlink" x="0px" y="0px"
	 width="404px" height="407px" viewBox="79.14 218.445 404 407" enable-background="new 79.14 218.445 404 407"
	 xml:space="preserve">
<path fill="#FFFFFF" d="M282.877,614.185c105.031,0,190.489-85.459,190.489-190.49c0-105.031-85.458-190.489-190.489-190.489
	S92.388,318.664,92.388,423.695C92.388,528.726,177.846,614.185,282.877,614.185z M282.877,257.017
	c91.911,0,166.679,74.768,166.679,166.678c0,91.912-74.768,166.68-166.679,166.68s-166.679-74.768-166.679-166.68
	C116.198,331.784,190.966,257.017,282.877,257.017z"/>
<path fill="#FFFFFF" d="M199.538,518.941c1.762,0,3.56-0.395,5.214-1.215L316.7,463.031c2.382-1.166,4.311-3.082,5.465-5.465
	l54.73-111.983c2.238-4.572,1.321-10.048-2.274-13.644c-3.583-3.583-9.06-4.512-13.644-2.273l-111.984,54.73
	c-2.381,1.167-4.31,3.083-5.464,5.464l-54.694,111.949c-2.238,4.572-1.322,10.049,2.273,13.645
	C193.406,517.738,196.443,518.941,199.538,518.941z M263.126,403.992l77.159-37.705l-37.705,77.16l-77.136,37.682L263.126,403.992z"
	/>
</svg>
