<?xml version="1.0" encoding="utf-8"?>
<!-- Generator: Adobe Illustrator 16.0.0, SVG Export Plug-In . SVG Version: 6.00 Build 0)  -->
<!DOCTYPE svg PUBLIC "-//W3C//DTD SVG 1.1//EN" "http://www.w3.org/Graphics/SVG/1.1/DTD/svg11.dtd">
<svg version="1.1" id="Layer_1" xmlns="http://www.w3.org/2000/svg" xmlns:xlink="http://www.w3.org/1999/xlink" x="0px" y="0px"
	 width="138px" height="38.167px" viewBox="8.667 3.833 138 38.167" enable-background="new 8.667 3.833 138 38.167"
	 xml:space="preserve">
<g id="Layer_1_1_">
	<g>
		<path fill="#00FFFC" d="M23.101,28.902V9.63h6.895v19.273c0,2.929-0.881,5.214-2.641,6.854c-1.762,1.64-4.012,2.46-6.754,2.46
			s-4.987-0.813-6.734-2.439c-1.747-1.626-2.621-3.918-2.621-6.874h6.854c0.026,1.075,0.268,1.868,0.726,2.378
			c0.457,0.512,1.049,0.768,1.775,0.768c0.725,0,1.324-0.256,1.793-0.768S23.101,29.977,23.101,28.902z"/>
		<path fill="#00FFFC" d="M34.026,9.63h6.895v23.063h8.587v5.242H34.026V9.63z"/>
		<path fill="#00FFFC" d="M59.872,38.217c-3.279,0-5.967-1.055-8.064-3.166c-2.097-2.109-3.146-4.912-3.146-8.406
			s1.042-6.277,3.125-8.346c2.083-2.07,4.778-3.105,8.083-3.105c3.306,0,6.048,1.022,8.226,3.064
			c2.177,2.043,3.266,4.879,3.266,8.508c0,0.781-0.054,1.506-0.162,2.178H55.718c0.134,0.994,0.578,1.807,1.331,2.438
			s1.566,0.947,2.439,0.947s1.526-0.087,1.956-0.262s0.746-0.349,0.947-0.524c0.202-0.176,0.464-0.463,0.787-0.867h7.459
			c-0.646,2.258-1.935,4.079-3.871,5.463C64.831,37.524,62.532,38.217,59.872,38.217z M62.815,22.066
			c-0.807-0.657-1.762-0.987-2.863-0.987c-1.103,0-2.029,0.331-2.782,0.987c-0.753,0.66-1.224,1.514-1.411,2.563h8.427
			C64.077,23.58,63.621,22.727,62.815,22.066z"/>
		<path fill="#00FFFC" d="M79.668,15.436v3.307c1.424-2.365,3.695-3.548,6.813-3.548c2.581,0,4.669,0.861,6.271,2.581
			c1.6,1.721,2.398,4.06,2.398,7.016v13.144h-6.855V25.717c0-1.451-0.383-2.574-1.147-3.367c-0.767-0.793-1.819-1.189-3.165-1.189
			s-2.4,0.396-3.166,1.189c-0.767,0.793-1.148,1.916-1.148,3.367v12.217h-6.895V15.436H79.668z"/>
		<path fill="#00FFFC" d="M104.262,12.896c-0.779,0.781-1.733,1.169-2.861,1.169c-1.129,0-2.084-0.389-2.863-1.169
			c-0.779-0.779-1.17-1.74-1.17-2.883c0-1.142,0.391-2.102,1.17-2.883c0.779-0.779,1.734-1.169,2.863-1.169
			c1.128,0,2.082,0.391,2.861,1.169c0.78,0.781,1.171,1.741,1.171,2.883C105.433,11.155,105.042,12.116,104.262,12.896z
			 M97.973,37.934V15.436h6.896v22.5h-6.896V37.934z"/>
		<path fill="#00FFFC" d="M117.447,38.217c-3.28,0-5.968-1.055-8.063-3.166c-2.097-2.109-3.145-4.912-3.145-8.406
			s1.04-6.277,3.124-8.346s4.778-3.105,8.084-3.105c3.307,0,6.049,1.022,8.227,3.064c2.177,2.043,3.266,4.879,3.266,8.508
			c0,0.781-0.057,1.506-0.162,2.178h-15.482c0.134,0.994,0.578,1.807,1.33,2.438s1.566,0.947,2.439,0.947
			c0.875,0,1.525-0.087,1.957-0.262c0.43-0.175,0.745-0.349,0.946-0.524c0.202-0.176,0.465-0.463,0.788-0.867h7.458
			c-0.646,2.258-1.935,4.079-3.872,5.463C122.406,37.524,120.108,38.217,117.447,38.217z M120.39,22.066
			c-0.806-0.657-1.76-0.987-2.862-0.987s-2.029,0.331-2.782,0.987c-0.753,0.66-1.224,1.514-1.411,2.563h8.427
			C121.653,23.58,121.196,22.727,120.39,22.066z"/>
		<path fill="#00FFFC" d="M137.244,15.436v4.194c1.613-2.957,3.763-4.436,6.451-4.436v7.015h-1.693
			c-1.588,0-2.776,0.377-3.568,1.129c-0.793,0.752-1.189,2.07-1.189,3.951v10.645h-6.895V15.436H137.244z"/>
	</g>
</g>
<g id="Layer_2">
</g>
</svg>
