<svg id="Layer_1" xmlns="http://www.w3.org/2000/svg" xmlns:xlink="http://www.w3.org/1999/xlink" viewBox="286 336.3 876.8 110.8" width="210" height="26"><style>.st0{clip-path:url(#SVGID_2_);fill:#FFF}.st1{enable-background:new}.st2{fill:#FFF}</style><defs><path id="SVGID_1_" d="M216 13h1024v768H216z"/></defs><clipPath id="SVGID_2_"><use xlink:href="#SVGID_1_" overflow="visible"/></clipPath><path class="st0" d="M383.5 386.8v-34.6c0-2.4-1.9-4.3-4.3-4.3h-89.5c-2.4 0-4.3 1.9-4.3 4.3v89.5c0 2.4 1.9 4.3 4.3 4.3h89.5c2.4 0 4.3-1.9 4.3-4.3v-34.6l15.8-10.2-15.8-10.1zM339.8 420h-11.2v-36.6h11.2V420zm19.1 0h-11.2v-47h11.2v47zm-38.1 0h-11.2v-26.4h11.2V420z"/><g class="st1"><path class="st2" d="M537.4 347.9v98h-19.7V384L491 445.9h-14.2l-26.5-61.6v61.6h-19.8v-98h22l31.5 72.6 31.5-72.6h21.9zM580.4 447.1c-11.3 0-20.5-3.7-27.7-11-7.1-7.3-10.7-17.1-10.7-29.1 0-12.1 3.6-21.7 10.7-29 7.2-7.3 16.4-10.9 27.8-10.9s20.7 3.5 28 10.6c7.3 7.1 11 16.5 11 28.3 0 2.7-.2 5.2-.6 7.6h-56.7c.5 5.1 2.3 9.1 5.6 12.2 3.3 3.1 7.4 4.6 12.5 4.6 6.8 0 11.9-2.8 15.2-8.4h21.3c-2.2 7.4-6.6 13.4-13.1 18.1-6.3 4.6-14.1 7-23.3 7zm13-58.7c-3.5-3.1-7.7-4.6-12.7-4.6-5 0-9.1 1.5-12.4 4.6-3.3 3.1-5.3 7.2-6 12.4h36.8c-.3-5.2-2.2-9.3-5.7-12.4zM644 368.2v11.7c5-8.5 13-12.8 24.1-12.8 8.9 0 16.1 2.9 21.8 8.8 5.6 5.9 8.4 14 8.4 24.4v45.8h-19.7v-43c0-6.1-1.5-10.7-4.6-14-3.1-3.2-7.3-4.8-12.6-4.8s-9.6 1.6-12.7 4.8c-3.1 3.2-4.7 7.9-4.7 14v43h-19.8v-77.8H644zM737.9 429.4h9.4V446h-12.5c-8 0-14.1-1.8-18.4-5.5-4.3-3.7-6.5-9.7-6.5-18.1v-38h-8.3v-16.1h8.3v-19.2h19.8v19.2h17.4v16.1h-17.4v38c0 2.5.6 4.3 1.8 5.4 1.3 1 3.4 1.6 6.4 1.6zM777.8 348.4c0 3.4-1.2 6.2-3.5 8.6-2.3 2.3-5.2 3.5-8.5 3.5s-6.2-1.2-8.5-3.5-3.5-5.2-3.5-8.6c0-3.4 1.2-6.2 3.5-8.6 2.3-2.3 5.2-3.5 8.5-3.5s6.2 1.2 8.5 3.5 3.5 5.2 3.5 8.6zm-21.9 97.5v-77.8h19.8v77.8h-19.8zM805.2 368.2v11.7c5-8.5 13-12.8 24.1-12.8 5.9 0 11.2 1.4 15.8 4.1 4.6 2.7 8.2 6.6 10.7 11.7 2.7-4.9 6.4-8.7 11.2-11.5 4.7-2.8 10-4.2 15.9-4.2 9.3 0 16.7 2.9 22.4 8.7 5.7 5.8 8.5 13.9 8.5 24.4v45.8h-19.7v-43c0-6.1-1.5-10.7-4.6-14-3.1-3.2-7.3-4.8-12.6-4.8s-9.6 1.6-12.7 4.8c-3.1 3.2-4.7 7.9-4.7 14v43h-19.7v-43c0-6.1-1.5-10.7-4.6-14-3.1-3.2-7.3-4.8-12.6-4.8s-9.6 1.6-12.7 4.8c-3.1 3.2-4.7 7.9-4.7 14v43h-19.8v-77.8h19.8zM955.7 447.1c-11.3 0-20.5-3.7-27.7-11-7.1-7.3-10.7-17.1-10.7-29.1 0-12.1 3.6-21.7 10.7-29 7.2-7.3 16.4-10.9 27.8-10.9 11.4 0 20.7 3.5 28 10.6 7.3 7.1 11 16.5 11 28.3 0 2.7-.2 5.2-.6 7.6h-56.7c.5 5.1 2.3 9.1 5.6 12.2 3.3 3.1 7.4 4.6 12.5 4.6 6.8 0 11.9-2.8 15.2-8.4h21.3c-2.2 7.4-6.6 13.4-13.1 18.1-6.3 4.6-14.1 7-23.3 7zm13-58.7c-3.5-3.1-7.7-4.6-12.7-4.6-5 0-9.1 1.5-12.4 4.6-3.3 3.1-5.3 7.2-6 12.4h36.8c-.3-5.2-2.2-9.3-5.7-12.4zM1029.7 429.4h9.4V446h-12.5c-8 0-14.1-1.8-18.4-5.5-4.3-3.7-6.5-9.7-6.5-18.1v-38h-8.3v-16.1h8.3v-19.2h19.8v19.2h17.4v16.1h-17.4v38c0 2.5.6 4.3 1.8 5.4 1.3 1 3.4 1.6 6.4 1.6z"/><path class="st2" d="M1076.4 447.1c-11.3 0-20.5-3.7-27.7-11-7.1-7.3-10.7-17.1-10.7-29.1 0-12.1 3.6-21.7 10.7-29 7.2-7.3 16.4-10.9 27.8-10.9 11.4 0 20.7 3.5 28 10.6 7.3 7.1 11 16.5 11 28.3 0 2.7-.2 5.2-.6 7.6h-56.7c.5 5.1 2.3 9.1 5.6 12.2 3.3 3.1 7.4 4.6 12.5 4.6 6.8 0 11.9-2.8 15.2-8.4h21.3c-2.2 7.4-6.6 13.4-13.1 18.1-6.3 4.6-14.1 7-23.3 7zm13-58.7c-3.5-3.1-7.7-4.6-12.7-4.6-5 0-9.1 1.5-12.4 4.6-3.3 3.1-5.3 7.2-6 12.4h36.8c-.3-5.2-2.2-9.3-5.7-12.4zM1140 368.2V382c5.2-9.9 12.8-14.9 22.7-14.9v20.2h-4.9c-5.9 0-10.3 1.5-13.3 4.4-3 2.9-4.5 8-4.5 15.2v39h-19.8v-77.8h19.8z"/></g></svg>